<?xml version="1.0" encoding="utf-8"?>
<!-- Generator: Adobe Illustrator 23.0.2, SVG Export Plug-In . SVG Version: 6.00 Build 0)  -->
<svg version="1.1" id="Layer_1" xmlns="http://www.w3.org/2000/svg" xmlns:xlink="http://www.w3.org/1999/xlink" x="0px" y="0px"
	 viewBox="0 0 400 400" style="enable-background:new 0 0 400 400;" xml:space="preserve">
<g>
	<g id="XMLID_1_">
		<g>
			<path d="M376.1,273.97h-10.22h-5.3c-0.48-2.57-1.23-4.39-2.25-5.41c-1.66-1.66-4.49-2.52-8.4-2.52c-3.85,0-6.53,0.64-8.02,1.93
				c-1.13,0.96-1.72,2.3-1.72,3.96c0,2.35,3.27,4.23,9.74,5.67c7.39,1.6,12.69,3,15.95,4.12c0.86,0.32,1.61,0.59,2.14,0.86
				c6.59,3.11,9.85,7.82,9.85,14.13c0,7.71-3.21,13.33-9.58,16.86c-0.8,0.43-1.55,0.8-2.41,1.18c-4.12,1.77-8.94,2.67-14.34,2.67
				c-8.08,0-14.62-1.45-19.59-4.28c-3.13-1.82-5.47-4.11-7.03-6.87c-1.56-2.76-2.34-5.98-2.34-9.67h16.27c0,2.78,1.02,4.98,3,6.48
				c1.98,1.55,5.36,2.36,10.12,2.36c3.59,0,6.26-0.75,8.03-2.25c1.39-1.18,2.03-2.47,2.03-3.96c0-2.52-3.21-4.49-9.58-5.89
				c-9.53-2.04-15.52-3.7-17.98-4.88c-6.53-3.05-9.74-7.76-9.74-14.29c0-5.24,1.66-9.68,5.08-13.32c4.28-4.55,10.7-6.8,19.22-6.8
				c7.01,0,12.63,1.02,16.86,3c0.37,0.16,0.7,0.32,1.02,0.54c3.05,1.65,5.35,3.85,6.89,6.59
				C375.33,266.91,376.1,270.18,376.1,273.97z"/>
			<path d="M367.8,236.08c0-0.32-0.05-0.59-0.21-0.8c-0.16-0.27-0.38-0.43-0.69-0.53c-0.21-0.06-0.54-0.11-1.02-0.17h-0.59h-1.87v3
				h1.98c0.16,0,0.37,0,0.48,0c0.7-0.05,1.18-0.16,1.45-0.43C367.64,236.88,367.8,236.5,367.8,236.08z M369.09,234.47
				c0.32,0.43,0.48,0.91,0.48,1.45c0,0.75-0.27,1.39-0.8,1.93c-0.53,0.54-1.23,0.86-2.08,0.91c0.37,0.16,0.64,0.32,0.86,0.53
				l1.5,1.98l1.18,1.98h-1.93l-0.91-1.6c-0.58-1.01-1.06-1.77-1.5-2.14c-0.05-0.05-0.11-0.11-0.21-0.16l-1.28-0.37h-0.96v4.28h-1.61
				v-10.06h3.48c0.22,0,0.43,0.05,0.59,0.05c0.86,0,1.5,0.11,1.93,0.27C368.34,233.67,368.77,233.98,369.09,234.47z"/>
			<path d="M373.64,238.11c0-1.39-0.32-2.68-1.02-3.91c-0.7-1.23-1.66-2.19-2.89-2.89c-1.23-0.64-2.52-1.02-3.8-1.02
				c-0.05,0-0.05,0-0.05,0c-1.29,0-2.57,0.38-3.79,1.02c-1.24,0.7-2.2,1.66-2.9,2.89c-0.69,1.23-1.07,2.52-1.07,3.91
				c0,1.34,0.38,2.62,1.07,3.85c0.65,1.17,1.61,2.14,2.84,2.83c1.23,0.7,2.52,1.02,3.85,1.02c0,0,0,0,0.05,0
				c1.34,0,2.63-0.32,3.86-1.02c1.23-0.69,2.19-1.66,2.83-2.83C373.32,240.73,373.64,239.45,373.64,238.11z M375.19,238.11
				c0,1.55-0.38,3.11-1.24,4.6c-0.8,1.5-1.93,2.63-3.42,3.42c-1.5,0.86-3,1.24-4.61,1.24c-0.05,0-0.05,0-0.05,0
				c-1.6,0-3.1-0.37-4.6-1.24c-1.5-0.8-2.63-1.93-3.43-3.42c-0.86-1.5-1.23-3.05-1.23-4.6c0-1.66,0.37-3.21,1.23-4.71
				c0.86-1.5,1.98-2.62,3.48-3.42c1.5-0.8,3-1.18,4.55-1.23c0,0,0,0,0.05,0c1.55,0,3.06,0.43,4.55,1.23
				c1.5,0.81,2.68,1.93,3.48,3.42C374.81,234.9,375.19,236.45,375.19,238.11z"/>
			<polygon points="284.14,162.48 328.09,235.7 284.14,235.7 257.49,235.7 215.52,165.74 183.73,112.81 215.52,93.7 235.54,81.65 
							"/>
			<path d="M316.05,286.55v30.03h-14.62v-3.32c-4.93,3.21-10.81,5.09-17.13,5.09c-0.06,0-0.11,0-0.16,0
				c-17.45-0.11-31.63-14.35-31.63-31.8c0-17.45,14.19-31.68,31.63-31.79c0.06,0,0.11,0,0.16,0c6.31,0,12.2,1.88,17.13,5.08v-3.48
				h14.62V286.55z M301.43,289.87v-6.64c-1.55-8.03-8.67-14.13-17.13-14.13c-0.06,0-0.11,0-0.16,0
				c-9.58,0.06-17.34,7.87-17.34,17.45c0,9.58,7.76,17.4,17.34,17.51c0.06,0,0.11,0,0.16,0
				C292.76,304.05,299.88,297.9,301.43,289.87z"/>
			<path d="M247.42,286.55v30.03h-14.61v-3.32c-4.98,3.21-10.81,5.09-17.13,5.09c-0.05,0-0.11,0-0.16,0
				c-17.45-0.11-31.63-14.35-31.63-31.8c0-17.45,14.18-31.68,31.63-31.79c0.05,0,0.11,0,0.16,0c6.32,0,12.15,1.88,17.13,5.08V235.7
				h14.61V286.55z M232.81,289.87v-6.64c-1.55-8.03-8.68-14.13-17.13-14.13c-0.05,0-0.11,0-0.16,0
				c-9.58,0.06-17.34,7.87-17.34,17.45c0,9.58,7.76,17.4,17.34,17.51c0.05,0,0.11,0,0.16,0
				C224.14,304.05,231.26,297.9,232.81,289.87z"/>
			<polygon points="215.52,206.9 232.76,235.7 215.52,235.7 162.21,235.7 123.03,170.51 121.32,167.67 123.03,166.66 173.18,136.46 
							"/>
			<rect x="162.26" y="254.75" width="15.9" height="61.82"/>
			<rect x="162.26" y="236.02" width="15.9" height="13.97"/>
			<path d="M154.98,286.55v30.03h-14.61v-3.32c-4.98,3.21-10.86,5.09-17.18,5.09c-0.05,0-0.11,0-0.16,0
				c-17.45-0.11-31.63-14.35-31.63-31.8c0-17.45,14.19-31.68,31.63-31.79c0.05,0,0.11,0,0.16,0c6.32,0,12.21,1.88,17.18,5.08V235.7
				h14.61V286.55z M140.37,289.87v-6.64c-1.55-8.03-8.67-14.13-17.18-14.13c-0.05,0-0.11,0-0.16,0
				c-9.58,0.06-17.34,7.87-17.34,17.45c0,9.58,7.76,17.4,17.34,17.51c0.05,0,0.11,0,0.16,0C131.7,304.05,138.82,297.9,140.37,289.87
				z"/>
			<polygon points="123.03,211.61 137.48,235.7 123.03,235.7 66.88,235.7 58.96,222.48 110.82,191.33 			"/>
			<path d="M85.67,286.55v30.03H71.06v-3.32c-4.98,3.21-10.87,5.09-17.18,5.09c-0.06,0-0.11,0-0.17,0
				c-17.39-0.11-31.58-14.35-31.58-31.8c0-17.45,14.18-31.68,31.58-31.79c0.06,0,0.11,0,0.17,0c6.31,0,12.2,1.88,17.18,5.08v-3.48
				h14.61V286.55z M71.06,289.87v-6.64c-1.55-8.03-8.67-14.13-17.18-14.13c-0.06,0-0.11,0-0.17,0c-9.53,0.06-17.28,7.87-17.28,17.45
				c0,9.58,7.76,17.4,17.28,17.51c0.06,0,0.11,0,0.17,0C62.39,304.05,69.5,297.9,71.06,289.87z"/>
		</g>
	</g>
</g>
</svg>
